PathFileType	4	(X/Y/Z)	C:/Users/beibeiliu/ov580/test_trc/User1\sequence.37_training_dense_left.trc
DataRate	CameraRate	NumFrames	NumMarkers	Units	OrigDataRate	OrigDataStartFrame	OrigNumFrames
120	120	15	19	mm	120	152	243
Frame#	Time	ThumbCMC			ThumbMCP			ThumbIP			ThumbTip			IndexMCP			IndexPIP			IndexTip			MiddleMCP			MiddlePIP			MiddleTip			RingMCP			RingPIP			RingTip			PinkyMCP			PinkyPIP			PinkyTip			BackHand1			BackHand2			BackHand3	
		X0	Y0	Z0	X1	Y1	Z1	X2	Y2	Z2	X3	Y3	Z3	X4	Y4	Z4	X5	Y5	Z5	X6	Y6	Z6	X7	Y7	Z7	X8	Y8	Z8	X9	Y9	Z9	X10	Y10	Z10	X11	Y11	Z11	X12	Y12	Z12	X13	Y13	Z13	X14	Y14	Z14	X15	Y15	Z15	X16	Y16	Z16	X17	Y17	Z17	X18	Y18	Z18	
151	1.25833	-102.641	-1.55734	33.363	-82.2101	-6.1147	9.85254	-70.5377	-3.88051	-18.2389	-59.4771	-16.3916	-37.6081	-92.4452	-36.9324	-37.7945	-59.5378	-46.1096	-34.1008	-51.9856	-39.6159	1.34644	-94.3198	-63.6455	-31.5365	-58.2305	-65.4507	-22.0231	-56.7245	-48.8239	14.7144	-87.3169	-80.7321	-18.7794	-59.3646	-74.4509	-2.18718	-60.4769	-61.1244	24.7308	-93.558	-94.2317	-1.60283	-69.118	-84.5178	10.8193	-73.562	-61.3891	31.3848	-140.772	-65.7169	17.5996	-146.495	-55.2286	53.0316	-137.464	-27.6785	24.6456	
152	1.26667	-102.703	-3.49046	33.2659	-80.2754	-4.38636	12.5209	-70.5168	-3.91122	-15.1004	-58.7954	-11.6019	-37.1927	-89.326	-36.827	-39.0379	-57.7534	-43.9075	-34.2996	-49.5406	-39.9273	-1.84261	-91.9279	-64.4295	-32.7071	-57.6054	-63.05	-22.5976	-57.2463	-49.972	14.3189	-90.0169	-79.7554	-18.372	-59.7963	-76.1548	-3.3605	-62.7864	-59.1415	28.4186	-93.1035	-98.1313	1.09872	-69.7222	-81.6144	10.1221	-76.1853	-59.3528	30.5771	-138.834	-64.6621	20.5596	-146.492	-51.4987	52.5007	-137.38	-26.7945	27.181	
153	1.275	-102.797	-6.00759	33.9973	-79.9005	-2.99883	9.59219	-72.4791	-8.13126	-16.3979	-59.1467	-10.6958	-35.9879	-92.4494	-40.7011	-37.1155	-55.7509	-45.7672	-33.1403	-50.5239	-40.3789	1.72745	-88.3342	-63.3315	-34.7143	-57.317	-64.9587	-20.6245	-57.5722	-46.4057	14.1005	-90.3944	-84.0651	-16.2261	-57.221	-75.5451	-0.710489	-60.1885	-58.9788	24.6608	-92.8313	-94.696	0.21044	-67.8336	-82.6068	13.7291	-74.9163	-59.7643	31.6605	-137.684	-68.2055	17.405	-145.914	-54.4677	54.8558	-137.87	-27.0062	28.0118	
154	1.28333	-102.246	-6.36575	33.4212	-78.887	-3.06349	6.7986	-70.112	-6.18575	-21.0322	-60.7199	-14.1054	-38.4694	-87.0021	-39.2857	-40.9069	-57.6428	-49.6903	-32.2655	-50.093	-42.5478	-0.731455	-90.0143	-66.37	-32.3604	-56.5313	-63.2635	-20.8511	-59.7687	-45.8479	16.6176	-90.2017	-79.4674	-17.8382	-57.7155	-76.0006	1.57303	-61.9136	-59.4503	27.7414	-93.7022	-97.5152	1.51192	-68.2914	-80.8487	10.6979	-74.4858	-61.4401	30.8007	-137.528	-64.4396	18.371	-144.499	-54.1117	55.1086	-134.737	-26.1565	24.264	
155	1.29167	-101.122	-5.0895	36.0108	-80.532	-9.40197	7.20929	-70.0218	-7.82411	-18.2819	-58.8805	-11.2725	-42.1326	-89.1741	-36.5755	-39.1786	-55.4679	-46.4848	-34.1773	-48.9953	-40.7146	0.278355	-90.4937	-64.7771	-33.5607	-55.6941	-61.7091	-17.7085	-60.7449	-49.0715	16.1317	-88.8045	-79.6361	-18.2286	-58.5884	-77.9567	-0.627891	-62.8554	-58.4975	27.6742	-90.8197	-95.3929	-0.3782	-68.6737	-83.9768	12.8811	-74.6338	-59.9344	31.8815	-138.524	-63.1095	17.5059	-146.466	-51.1876	54.1389	-137.48	-27.4058	27.5944	
156	1.3	-100.469	-5.07591	32.5972	-80.6368	-8.77409	8.49067	-69.8895	-7.20956	-19.6411	-56.3654	-8.62366	-38.9351	-88.2197	-42.5025	-39.2708	-58.185	-50.7069	-33.0039	-50.4231	-43.0364	-0.138415	-89.3836	-67.5669	-33.8437	-57.9131	-65.9589	-19.0629	-63.9486	-50.1995	17.806	-87.5608	-84.2907	-16.9094	-59.162	-73.3066	-0.609286	-65.7911	-58.2733	28.9217	-96.8503	-93.9056	-0.350508	-71.2545	-83.9478	9.84424	-75.372	-61.1629	34.103	-137.995	-64.0337	16.8919	-144.837	-50.5149	51.3132	-135.881	-28.078	23.6308	
157	1.30833	-99.4573	-2.4905	35.1456	-78.1619	-8.25156	11.3818	-68.8395	-9.22431	-19.0597	-58.971	-14.3877	-39.2314	-89.2525	-37.6276	-40.0182	-59.7605	-49.4396	-34.4547	-49.3358	-41.7697	-0.03307	-94.5521	-67.0305	-32.797	-58.3971	-65.0871	-20.1234	-66.7237	-49.8686	18.0241	-90.4261	-84.8867	-15.3181	-61.4666	-75.3941	-0.427137	-67.9262	-59.0014	29.5613	-95.4515	-96.8385	-0.13339	-71.8601	-84.3153	10.3927	-80.991	-59.6411	29.3587	-139.69	-66.3681	16.9609	-146.207	-53.0957	52.3368	-135.037	-22.7432	25.7804	
158	1.31667	-99.5267	-6.43433	33.2458	-77.437	-7.99282	6.74522	-69.6724	-13.3508	-16.1903	-57.8343	-14.7202	-37.0583	-88.7758	-41.178	-40.1332	-58.3877	-50.7753	-33.1126	-49.9919	-45.4888	-0.110353	-90.125	-66.0233	-35.1569	-60.2254	-67.3568	-22.5265	-64.6773	-52.9131	15.0127	-87.6527	-84.9441	-16.6606	-60.9336	-75.696	-0.747897	-65.3852	-61.9813	28.1306	-94.8712	-98.2463	0.702794	-71.87	-87.7755	13.1142	-82.611	-60.9773	33.1487	-138.885	-63.7401	20.4525	-146.782	-53.2489	53.6653	-135.817	-23.5963	24.8494	
159	1.325	-97.8295	-5.11703	35.8387	-77.0595	-8.43304	5.70648	-69.728	-13.4367	-20.7703	-57.8287	-16.0301	-39.7945	-90.358	-37.1903	-38.8367	-56.1103	-50.5122	-32.552	-51.0936	-47.4036	-1.24202	-94.634	-67.5875	-32.7965	-60.1515	-69.5171	-18.485	-65.2171	-51.1855	15.9072	-91.2166	-85.3551	-14.6947	-60.9328	-75.3806	-0.741624	-66.9736	-59.1809	27.9176	-96.3251	-96.3324	0.355812	-73.51	-83.9667	12.0803	-79.7253	-58.9893	29.8881	-140.981	-64.1562	20.7837	-147.313	-52.8835	52.4381	-135.898	-26.6298	25.0935	
160	1.33333	-97.7929	-6.90102	37.6386	-77.6694	-9.53168	8.8513	-68.2411	-12.3625	-19.1305	-57.7232	-15.9527	-42.5246	-90.3155	-42.4634	-39.5849	-59.1671	-52.0714	-34.7104	-49.6543	-45.1174	1.17471	-91.6797	-66.3883	-33.6375	-60.2599	-67.9123	-18.8611	-66.214	-51.1933	18.3789	-93.7468	-83.2504	-15.3034	-60.7664	-78.6448	4.53115	-66.4632	-62.0665	28.6292	-98.2348	-97.893	3.39164	-71.865	-83.5231	17.4017	-84.2191	-56.6153	32.3616	-139.76	-61.0618	16.3516	-144.282	-48.5949	52.7074	-135.517	-22.1111	27.0753	
161	1.34167	-98.2157	-6.58684	36.4836	-75.4955	-7.15345	7.81419	-69.2377	-13.3688	-19.6257	-58.1883	-14.1261	-41.0461	-90.6215	-38.7325	-39.2149	-60.2357	-50.9021	-36.6846	-51.3441	-46.2898	0.950718	-95.6471	-66.8706	-31.1346	-61.422	-70.7858	-18.7413	-63.4646	-53.8307	17.0126	-91.2059	-85.6504	-15.0961	-62.4995	-76.9623	0.183903	-68.0167	-60.8426	31.0156	-99.7814	-97.4037	3.52781	-74.0431	-84.5734	13.0985	-81.2595	-60.6655	34.6946	-139.25	-63.115	17.4937	-145.357	-53.6614	52.2444	-135.774	-26.7948	26.1149	
162	1.35	-98.799	-7.41081	35.3125	-76.8086	-8.42567	6.97692	-67.274	-10.5532	-17.174	-58.9833	-13.7792	-37.3921	-90.5367	-39.0205	-40.3428	-57.9253	-54.0737	-32.0348	-50.6348	-45.7774	1.82077	-92.6354	-67.9761	-33.25	-58.4776	-66.7948	-18.8078	-61.785	-50.9757	15.5555	-88.7335	-82.8084	-15.8161	-62.9264	-78.943	1.38877	-65.687	-62.4151	29.2696	-96.4977	-98.2637	1.97547	-72.1433	-86.4228	16.0415	-83.5818	-58.4343	35.7015	-139.787	-62.8806	19.5766	-145.372	-51.9037	51.4455	-134.314	-21.5354	27.4067	
163	1.35833	-97.9318	-5.36077	33.592	-77.4018	-7.92372	10.4093	-68.7427	-9.83296	-21.1434	-57.4411	-10.7838	-37.5111	-89.7892	-40.4962	-39.4486	-58.2753	-53.7334	-32.5119	-50.468	-46.4213	-0.766786	-92.0775	-65.9776	-33.311	-61.3528	-70.1928	-19.8332	-60.7842	-51.0015	14.0198	-92.8266	-83.7647	-15.3424	-62.4187	-78.5486	-2.08787	-64.8622	-58.7843	27.4214	-98.1152	-95.4213	1.49828	-72.5359	-84.6706	12.5243	-79.8707	-61.6726	31.8233	-141.061	-62.9492	20.2059	-144.136	-48.3667	53.4459	-133.043	-21.5922	28.5242	
164	1.36667	-98.7421	-6.07216	32.8609	-77.6697	-6.33403	9.50454	-70.8625	-9.49395	-19.0124	-58.2951	-6.55221	-39.3733	-87.7579	-39.6613	-41.4718	-57.2983	-50.3072	-34.8647	-51.5448	-44.498	-2.31604	-93.3757	-63.4908	-33.9821	-59.484	-67.8117	-19.4029	-62.4101	-50.8154	16.5437	-91.3898	-82.8991	-16.759	-61.3633	-80.6898	-0.915685	-63.0074	-60.8989	24.2663	-98.6716	-97.3369	2.09881	-72.1571	-82.0948	10.7868	-81.4657	-56.6565	29.2856	-138.364	-63.3569	20.3005	-144.678	-51.8548	55.627	-134.256	-23.2416	24.3439	
165	1.375	-99.4475	-2.5729	31.5268	-80.232	-4.18093	8.00429	-71.6974	-4.89443	-21.1466	-60.2796	-7.64631	-42.1023	-91.2648	-37.4114	-40.9085	-58.4895	-51.7017	-32.3974	-53.7172	-44.0729	0.00499201	-92.6011	-66.355	-33.2371	-58.0253	-66.5155	-19.0704	-59.0412	-47.7294	13.5801	-90.358	-79.6942	-19.304	-59.734	-76.3359	-2.32271	-62.5399	-59.716	23.6577	-96.098	-94.3683	-1.56715	-70.7802	-87.1479	10.699	-79.083	-60.546	27.5554	-140.751	-63.4869	19.7754	-144.964	-49.4222	50.8536	-136.132	-25.3961	25.5663	
